# xmcd CD database file generated by Grip 3.0.7
# 
# Track frame offsets:
#       150
#       17947
#       33445
# 
# Disc length: 707 seconds
# 
# Revision: 1
# Processed by: cddbd v1.5PL3 Copyright (c) Steve Scherf et al.
# Submitted via: Grip 3.0.7
# 
DISCID=1d02c103
DTITLE=Warm Jets - Hurricane (single)
DYEAR=1997
DGENRE=Rock
TTITLE0=Hurricane
TTITLE1=Soft Song
TTITLE2=Dakota
EXTD=YEAR: 2000
EXTT0=
EXTT1=
EXTT2=
PLAYORDER=
